<?xml version="1.0"?>
<svg version="1.1" xmlns="http://www.w3.org/2000/svg" width="400px" height="200px" style=""><path fill="#062c9e" d="M73.85,109l0,5.5l-10.1,0l0,9.5l8.95,0l1.15-4.1l4.5,0l0,10.1l-26.1,0l0-4.25l3.75-1.5l0-23.5l-3.75-1.5l0-4.25l11.5-0.25l14,0l0,9.65l-4.5,0l-1.25-3.65l-8.25,0l0,8.25l10.1,0z M104.8255,130l-0.45-2.65c-0.7,0.7-3.25,3.15-7.55,3.15c-7,0-10.25-5.1-10.25-13.35c0-9.4,4.5-14.65,13.65-14.65c1.2,0,2.65,0.25,3.75,0.5l0-6.35l-4-1l0-4l11.5-0.4l0,33.4l4,1l0,4z M103.9755,121.65l0-12.4c-0.95-0.45-2.45-0.75-3.9-0.75c-4.25,0-5.75,3.25-5.75,8.25c0,5.05,1.4,7.75,4.8,7.75c3.2,0,4.85-2.85,4.85-2.85z M120.701,107.25l0-4l11.5-0.25l0,17.25c0,2.75,0.8,4,3.05,4c3.25,0,5.65-2.7,5.65-2.7l0-13.05l-4-1.25l0-4l11.5-0.25l0,21.75l4,1l0,3.9l-10.55,0.35l-0.5-3.5s-4,4-8.75,4c-5,0-7.9-3.35-7.9-8.95l0-13.05z M173.8765,113.25l0,6.25l-14.25,0l0-6.25l14.25,0z M191.602,91.25l0,13.9c0.85-0.65,3.35-2.65,7.15-2.65c6.7,0,10.25,4.85,10.25,13.25c0,9.4-4.9,14.85-14.5,14.85c-5.5,0-10.4-1.1-10.4-1.1l0-32.85l-3.75-1l0-4z M191.602,110.75l0,13.45s1.15,0.4,3.7,0.4c4.35,0,5.95-3.3,5.95-8.35c0-5-1.4-7.75-4.9-7.75c-3,0-4.75,2.25-4.75,2.25z M215.2275,107.25l0-4l11.5-0.25l0,17.25c0,2.75,0.8,4,3.05,4c3.25,0,5.65-2.7,5.65-2.7l0-13.05l-4-1.25l0-4l11.5-0.25l0,21.75l4,1l0,3.9l-10.55,0.35l-0.5-3.5s-4,4-8.75,4c-5,0-7.9-3.35-7.9-8.95l0-13.05z M271.653,130l-0.45-2.65c-0.7,0.7-3.25,3.15-7.55,3.15c-7,0-10.25-5.1-10.25-13.35c0-9.4,4.5-14.65,13.65-14.65c1.2,0,2.65,0.25,3.75,0.5l0-6.35l-4-1l0-4l11.5-0.4l0,33.4l4,1l0,4z M270.803,121.65l0-12.4c-0.95-0.45-2.45-0.75-3.9-0.75c-4.25,0-5.75,3.25-5.75,8.25c0,5.05,1.4,7.75,4.8,7.75c3.2,0,4.85-2.85,4.85-2.85z M307.0285,130l-0.45-2.65c-0.7,0.7-3.25,3.15-7.55,3.15c-7,0-10.25-5.1-10.25-13.35c0-9.4,4.5-14.65,13.65-14.65c1.2,0,2.65,0.25,3.75,0.5l0-6.35l-4-1l0-4l11.5-0.4l0,33.4l4,1l0,4z M306.1785,121.65l0-12.4c-0.95-0.45-2.45-0.75-3.9-0.75c-4.25,0-5.75,3.25-5.75,8.25c0,5.05,1.4,7.75,4.8,7.75c3.2,0,4.85-2.85,4.85-2.85z M327.004,94.75c0-2.85,2.05-4.5,4.3-4.5c2.6,0,4.2,1.35,4.2,4.5c0,2.95-2.15,4.55-4.2,4.55c-2.7,0-4.3-1.6-4.3-4.55z M335.404,124.75l3.5,1.25l0,4l-15,0l0-4l4-1.25l0-16.25l-4-1.25l0-4l11.5-0.25l0,21.75z M370.0295,118.15l-16.6,0c0.3,4,2.6,6.35,6.05,6.35c4.15,0,8.4-2.35,8.4-2.35l2.15,4.15s-5,4.2-11.4,4.2c-8.6,0-13-5-13-13.5c0-8.75,4.95-14.5,13.35-14.5c7.45,0,11.35,4.6,11.35,11.75c0,1.9-0.3,3.75-0.3,3.9z M353.5295,113.5l9.05,0c0-2.85-1.2-5-4.1-5c-2.8,0-4.55,2.05-4.95,5z M381.955,121.25l0.4,3.25s1.75,0.5,4.2,0.5c2.75,0,4.1-0.85,4.1-2.45c0-4.1-13.35-2.6-13.35-11.5c0-6.25,5-8.55,10.3-8.55c4.5,0,9.3,1.5,9.3,1.5l-0.2,7.5l-4.25,0l-0.75-3s-1.45-0.5-3.45-0.5c-2.15,0-3.45,0.9-3.45,2.55c0,4.05,13.35,2.3,13.35,10.95c0,5.75-4.65,9-11.5,9c-4.75,0-9.2-1.1-9.2-1.1l0-8.15l4.5,0z"/><path fill="#" d=""/></svg>
